# xmcd
#
# Track frame offsets: 
#        150
#        28906
#        61828
#        72490
#        76186
#        87697
#        99399
#        107370
#        113462
#        124792
#        140918
#        164906
#        173601
#        202865
#        212889
#        224138
#        240059
#        251997
#        278287
#        289455
#        318199
#
# Disc length: 4389 seconds
#
# Revision: 2
# Processed by: cddbd v1.5.2PL0 Copyright (c) Steve Scherf et al.
# Submitted via: ExactAudioCopyFreeDBPlugin 1.0
#
DISCID=37112315
DTITLE=Bettina Greve - Auf Kurs - Die Johnny Cash Biographie CD1
DYEAR=2007
DGENRE=Vocal
TTITLE0=Kapitel 1
TTITLE1=Kapitel 2
TTITLE2=Kapitel 3:Cotton Pickin' Hands
TTITLE3=Kapitel 4
TTITLE4=Kapitel5:In Them Old Cotton Fields Back Home
TTITLE5=Kapitel 6
TTITLE6=Kapitel 7:Five Feet High And Rising
TTITLE7=Kapitel 8
TTITLE8=Kapitel 9:The Frozen Four-Hundred-Pund-Fair-To-Middlin' Cotton
TTITLE8=Picker
TTITLE9=Kapitel 10
TTITLE10=Kapitel 11:Daddy Sang Bass
TTITLE11=Kapitel 12:I Wanna Go Home
TTITLE12=Kapitel 13
TTITLE13=Kapitel 14:Hey Porter!
TTITLE14=Kapitel 15
TTITLE15=Kapitel 16:Busted
TTITLE16=Kapitel 17:Home Of The Blues
TTITLE17=Kapitel 18
TTITLE18=Kapitel 19:Wide Open Road
TTITLE19=Kapitel 20
TTITLE20=Kapitel 21:Cry,Cry,Cry
EXTD=
EXTT0=
EXTT1=
EXTT2=
EXTT3=
EXTT4=
EXTT5=
EXTT6=
EXTT7=
EXTT8=
EXTT9=
EXTT10=
EXTT11=
EXTT12=
EXTT13=
EXTT14=
EXTT15=
EXTT16=
EXTT17=
EXTT18=
EXTT19=
EXTT20=
PLAYORDER=
